
<svg xmlns="http://www.w3.org/2000/svg" xmlns:xlink="http://www.w3.org/1999/xlink" width="320pt" height="320pt" viewBox="0 0 320 320" version="1.1">
<g >
<path style=" stroke:none;fill-rule:nonzero;fill:rgb(0%,0%,0%);fill-opacity:1;" d="M 320 160 C 320 71.570312 248.441406 0 160 0 C 71.570312 0 0 71.558594 0 160 C 0 247.648438 70.960938 320 160 320 C 248.671875 320 320 248.050781 320 160 Z M 160 18.75 C 237.886719 18.75 301.25 82.113281 301.25 160 C 301.25 188.492188 292.777344 215.875 277.0625 239.070312 C 213.953125 171.191406 106.160156 171.070312 42.941406 239.070312 C 27.222656 215.875 18.75 188.492188 18.75 160 C 18.75 82.113281 82.113281 18.75 160 18.75 Z M 54.632812 254.0625 C 110.742188 191.128906 209.273438 191.140625 265.363281 254.0625 C 209.066406 317.046875 110.953125 317.066406 54.632812 254.0625 Z M 54.632812 254.0625 "/>
<path style=" stroke:none;fill-rule:nonzero;fill:rgb(0%,0%,0%);fill-opacity:1;" d="M 160 169.375 C 191.015625 169.375 216.25 144.140625 216.25 113.125 L 216.25 94.375 C 216.25 63.359375 191.015625 38.125 160 38.125 C 128.984375 38.125 103.75 63.359375 103.75 94.375 L 103.75 113.125 C 103.75 144.140625 128.984375 169.375 160 169.375 Z M 122.5 94.375 C 122.5 73.695312 139.320312 56.875 160 56.875 C 180.679688 56.875 197.5 73.695312 197.5 94.375 L 197.5 113.125 C 197.5 133.804688 180.679688 150.625 160 150.625 C 139.320312 150.625 122.5 133.804688 122.5 113.125 Z M 122.5 94.375 "/>
</g>
</svg>
