
<svg xmlns="http://www.w3.org/2000/svg" xmlns:xlink="http://www.w3.org/1999/xlink" width="247pt" height="247pt" viewBox="0 0 247 247" version="1.1">
<g >
<path style=" stroke:none;fill-rule:nonzero;fill:rgb(0%,0%,0%);fill-opacity:1;" d="M 236.535156 151.503906 C 234.019531 151.503906 231.640625 152.476562 229.664062 154.316406 C 203.699219 178.453125 168.007812 206.453125 122.066406 208.773438 C 120 208.882812 117.910156 208.933594 115.824219 208.933594 C 81.707031 208.933594 51.402344 195.464844 34.75 172.914062 C 21.535156 155.003906 17.226562 132.550781 22.625 109.683594 C 28.78125 83.601562 47.191406 59.964844 70.671875 47.996094 C 83.5625 41.425781 97.71875 37.953125 111.613281 37.953125 C 148.910156 37.953125 178.125 61.988281 184.308594 97.765625 C 186.730469 111.75 183.226562 146.863281 170.25 162.277344 C 166.253906 167.023438 161.699219 169.429688 156.707031 169.429688 L 156.703125 169.429688 C 154.238281 169.429688 151.59375 168.851562 148.839844 167.703125 C 147.511719 158.007812 148.304688 146.746094 149.144531 134.855469 C 151.023438 108.316406 152.960938 80.875 131.902344 65.089844 C 130.984375 64.144531 129.941406 63.429688 128.792969 62.953125 L 128.644531 62.859375 C 127.992188 62.441406 127.339844 62.027344 126.640625 61.640625 C 124.007812 60.179688 121.128906 59.90625 118.464844 60.851562 C 117.679688 60.914062 116.921875 61.0625 116.164062 61.296875 C 88.4375 69.910156 61.820312 87.847656 44.953125 109.285156 C 36.601562 119.898438 32.757812 134.238281 34.925781 146.707031 C 36.671875 156.734375 42.039062 164.828125 50.453125 170.101562 C 55.484375 173.253906 61.316406 174.855469 67.792969 174.855469 C 86.753906 174.855469 106.132812 161.347656 113.582031 155.539062 C 119.933594 150.589844 125.453125 144.597656 129.890625 137.875 C 129.796875 139.15625 129.703125 140.429688 129.609375 141.691406 C 128.695312 153.972656 127.832031 165.578125 129.261719 174.421875 C 129.128906 178.070312 130.902344 181.253906 134.164062 183.203125 C 141.644531 187.660156 148.992188 189.925781 156.007812 189.925781 C 185.71875 189.925781 202.796875 149.707031 205.433594 121.144531 C 207.945312 93.925781 200.460938 68.464844 184.363281 49.457031 C 168.980469 31.289062 146.484375 20.253906 121.019531 18.382812 C 118.171875 18.171875 115.289062 18.066406 112.457031 18.066406 C 53.285156 18.066406 5.089844 62.476562 0.339844 121.367188 C -1.804688 147.941406 6.253906 171.945312 23.636719 190.785156 C 45.808594 214.820312 81.957031 229.171875 120.324219 229.171875 C 120.324219 229.171875 120.324219 229.171875 120.328125 229.171875 C 122.824219 229.171875 125.347656 229.105469 127.824219 228.980469 C 176.1875 226.539062 215.328125 195.609375 244.019531 168.933594 C 247.074219 166.09375 248.027344 162.191406 246.566406 158.476562 C 244.953125 154.371094 240.828125 151.503906 236.535156 151.503906 Z M 99.492188 140.691406 C 93.089844 146.125 79.578125 154.210938 68.59375 154.210938 C 64.671875 154.210938 61.40625 153.164062 58.890625 151.105469 C 55.449219 148.28125 53.722656 144.949219 53.617188 140.921875 C 53.355469 130.972656 63.253906 118.320312 72.601562 109.796875 C 85.757812 97.796875 102.226562 87.851562 118.101562 82.265625 C 124.652344 97.835938 123.035156 120.722656 99.492188 140.691406 Z M 99.492188 140.691406 "/>
</g>
</svg>
