
<svg xmlns="http://www.w3.org/2000/svg" xmlns:xlink="http://www.w3.org/1999/xlink" width="245pt" height="245pt" viewBox="0 0 245 245" version="1.1">
<g >
<path style=" stroke:none;fill-rule:nonzero;fill:rgb(0%,0%,0%);fill-opacity:1;" d="M 97.484375 122.5 C 97.484375 136.292969 108.707031 147.515625 122.5 147.515625 C 136.292969 147.515625 147.515625 136.292969 147.515625 122.5 C 147.515625 108.707031 136.292969 97.484375 122.5 97.484375 C 108.707031 97.484375 97.484375 108.707031 97.484375 122.5 Z M 97.484375 122.5 "/>
<path style=" stroke:none;fill-rule:nonzero;fill:rgb(0%,0%,0%);fill-opacity:1;" d="M 242.824219 118.742188 C 230.832031 98.007812 213.582031 80.617188 192.945312 68.453125 C 171.695312 55.921875 147.355469 49.296875 122.554688 49.289062 C 122.539062 49.289062 122.519531 49.289062 122.5 49.289062 C 122.480469 49.289062 122.464844 49.289062 122.445312 49.289062 C 97.644531 49.296875 73.304688 55.921875 52.054688 68.453125 C 31.417969 80.617188 14.167969 98.007812 2.175781 118.742188 L 0 122.5 L 2.175781 126.257812 C 14.167969 146.992188 31.417969 164.382812 52.054688 176.546875 C 73.304688 189.078125 97.644531 195.703125 122.445312 195.710938 C 122.460938 195.710938 122.480469 195.710938 122.5 195.710938 C 122.519531 195.710938 122.535156 195.710938 122.554688 195.710938 C 147.355469 195.703125 171.695312 189.078125 192.945312 176.546875 C 213.582031 164.382812 230.832031 146.992188 242.824219 126.257812 L 245 122.5 Z M 180.703125 122.5 C 180.703125 154.574219 154.621094 180.671875 122.554688 180.703125 C 122.535156 180.703125 122.515625 180.703125 122.5 180.703125 C 122.480469 180.703125 122.464844 180.703125 122.445312 180.703125 C 90.378906 180.671875 64.296875 154.574219 64.296875 122.5 C 64.296875 90.425781 90.378906 64.328125 122.445312 64.296875 C 122.464844 64.296875 122.480469 64.296875 122.5 64.296875 C 122.515625 64.296875 122.535156 64.296875 122.554688 64.296875 C 154.621094 64.328125 180.703125 90.425781 180.703125 122.5 Z M 17.433594 122.5 C 28.910156 104.195312 44.855469 89.460938 63.359375 79.398438 C 54.515625 91.5 49.289062 106.398438 49.289062 122.5 C 49.289062 138.601562 54.515625 153.5 63.359375 165.601562 C 44.855469 155.539062 28.910156 140.804688 17.433594 122.5 Z M 181.640625 165.601562 C 190.484375 153.5 195.714844 138.601562 195.714844 122.5 C 195.714844 106.398438 190.484375 91.5 181.640625 79.398438 C 200.144531 89.460938 216.089844 104.195312 227.570312 122.5 C 216.089844 140.804688 200.144531 155.539062 181.640625 165.601562 Z M 181.640625 165.601562 "/>
</g>
</svg>
