
<svg xmlns="http://www.w3.org/2000/svg" xmlns:xlink="http://www.w3.org/1999/xlink" width="49pt" height="49pt" viewBox="0 0 49 49" version="1.1">
<g >
<path style=" stroke:none;fill-rule:nonzero;fill:rgb(0%,0%,0%);fill-opacity:1;" d="M 24.4375 0 C 10.941406 0 0 10.941406 0 24.4375 C 0 37.933594 10.941406 48.875 24.4375 48.875 C 37.933594 48.875 48.875 37.933594 48.875 24.4375 C 48.875 10.941406 37.933594 0 24.4375 0 Z M 33.761719 12.445312 L 30.378906 12.445312 C 27.730469 12.445312 27.21875 13.707031 27.21875 15.554688 L 27.21875 19.628906 L 33.539062 19.628906 L 33.535156 26.011719 L 27.21875 26.011719 L 27.21875 42.390625 L 20.625 42.390625 L 20.625 26.011719 L 15.113281 26.011719 L 15.113281 19.628906 L 20.625 19.628906 L 20.625 14.921875 C 20.625 9.460938 23.964844 6.484375 28.835938 6.484375 L 33.761719 6.492188 Z M 33.761719 12.445312 "/>
</g>
</svg>
