
<svg xmlns="http://www.w3.org/2000/svg" xmlns:xlink="http://www.w3.org/1999/xlink" width="245pt" height="245pt" viewBox="0 0 245 245" version="1.1">
<g >
<path style=" stroke:none;fill-rule:nonzero;fill:rgb(0%,0%,0%);fill-opacity:1;" d="M 242.824219 126.257812 L 245 122.5 L 242.824219 118.742188 C 230.832031 98.007812 213.582031 80.617188 192.945312 68.453125 C 171.695312 55.921875 147.355469 49.296875 122.554688 49.289062 C 122.539062 49.289062 122.519531 49.289062 122.5 49.289062 C 122.480469 49.289062 122.464844 49.289062 122.445312 49.289062 C 104.425781 49.292969 86.652344 52.796875 70.128906 59.515625 L 13.976562 3.363281 L 3.363281 13.976562 L 55.742188 66.355469 C 54.503906 67.035156 53.273438 67.734375 52.054688 68.453125 C 31.417969 80.617188 14.167969 98.007812 2.175781 118.742188 L 0 122.5 L 2.175781 126.257812 C 14.167969 146.992188 31.417969 164.382812 52.054688 176.546875 C 73.304688 189.078125 97.644531 195.703125 122.445312 195.710938 C 122.460938 195.710938 122.480469 195.710938 122.5 195.710938 C 122.519531 195.710938 122.535156 195.710938 122.554688 195.710938 C 140.574219 195.707031 158.347656 192.203125 174.871094 185.484375 L 231.023438 241.636719 L 241.636719 231.023438 L 189.257812 178.644531 C 190.496094 177.964844 191.726562 177.265625 192.945312 176.546875 C 213.582031 164.382812 230.832031 146.992188 242.824219 126.257812 Z M 227.566406 122.5 C 216.089844 140.804688 200.144531 155.539062 181.640625 165.601562 C 190.484375 153.5 195.710938 138.601562 195.710938 122.5 C 195.710938 106.398438 190.484375 91.5 181.640625 79.398438 C 200.144531 89.460938 216.089844 104.195312 227.566406 122.5 Z M 122.5 180.703125 C 122.480469 180.703125 122.464844 180.703125 122.445312 180.703125 C 90.378906 180.671875 64.296875 154.574219 64.296875 122.5 C 64.296875 109.152344 68.816406 96.84375 76.398438 87.015625 L 100.324219 110.9375 C 98.511719 114.398438 97.480469 118.332031 97.480469 122.5 C 97.480469 136.292969 108.703125 147.515625 122.5 147.515625 C 126.667969 147.515625 130.601562 146.484375 134.0625 144.675781 L 157.984375 168.597656 C 148.167969 176.171875 135.878906 180.6875 122.550781 180.699219 C 122.535156 180.703125 122.519531 180.703125 122.5 180.703125 Z M 122.5 64.296875 C 122.519531 64.296875 122.535156 64.296875 122.554688 64.296875 C 154.621094 64.328125 180.703125 90.425781 180.703125 122.5 C 180.703125 135.847656 176.183594 148.15625 168.601562 157.984375 L 144.675781 134.0625 C 146.488281 130.601562 147.519531 126.667969 147.519531 122.5 C 147.519531 108.707031 136.296875 97.484375 122.5 97.484375 C 118.332031 97.484375 114.398438 98.515625 110.9375 100.324219 L 87.015625 76.402344 C 96.832031 68.828125 109.121094 64.3125 122.449219 64.300781 C 122.464844 64.296875 122.480469 64.296875 122.5 64.296875 Z M 17.433594 122.5 C 28.910156 104.195312 44.855469 89.460938 63.359375 79.398438 C 54.515625 91.5 49.289062 106.398438 49.289062 122.5 C 49.289062 138.601562 54.515625 153.5 63.359375 165.601562 C 44.855469 155.539062 28.910156 140.804688 17.433594 122.5 Z M 17.433594 122.5 "/>
</g>
</svg>
