
<svg xmlns="http://www.w3.org/2000/svg" xmlns:xlink="http://www.w3.org/1999/xlink" width="241pt" height="241pt" viewBox="0 0 241 241" version="1.1">
<g >
<path style=" stroke:none;fill-rule:nonzero;fill:rgb(0%,0%,0%);fill-opacity:1;" d="M 145.445312 89.613281 C 145.238281 87.015625 143.480469 84.734375 140.109375 85.078125 C 126.640625 86.453125 113.109375 87.003906 99.644531 88.382812 C 96.984375 87.742188 93.972656 88.777344 93.113281 92.199219 C 90.902344 101.023438 88.671875 109.828125 87.121094 118.792969 C 86.8125 120.589844 87.277344 122.117188 88.160156 123.296875 C 88.75 125.503906 90.449219 127.472656 93.289062 127.78125 C 98.472656 128.332031 103.667969 128.679688 108.878906 128.824219 C 108.125 154.15625 107.140625 179.476562 106.414062 204.804688 C 105.648438 208.042969 107.367188 211.867188 111.644531 211.683594 C 119.511719 211.335938 127.375 211.335938 135.242188 211.683594 C 136.640625 211.742188 137.757812 211.367188 138.613281 210.734375 C 140.527344 210.027344 142.019531 208.351562 141.984375 205.6875 C 141.417969 167.550781 145.210938 129.554688 145.730469 91.445312 C 145.738281 90.761719 145.617188 90.167969 145.445312 89.613281 Z M 130.734375 200.320312 C 126.421875 200.203125 122.113281 200.15625 117.796875 200.246094 C 118.550781 174.964844 119.535156 149.691406 120.253906 124.410156 C 120.320312 122.160156 119.277344 120.613281 117.8125 119.765625 C 116.917969 118.539062 115.496094 117.679688 113.511719 117.667969 C 108.613281 117.648438 103.734375 117.441406 98.859375 117.054688 C 100.039062 111.105469 101.457031 105.210938 102.917969 99.324219 C 113.390625 98.347656 123.890625 97.738281 134.367188 96.828125 C 133.640625 131.34375 130.582031 165.78125 130.734375 200.320312 Z M 130.734375 200.320312 "/>
<path style=" stroke:none;fill-rule:nonzero;fill:rgb(0%,0%,0%);fill-opacity:1;" d="M 122.542969 31.390625 C 122.039062 31.300781 121.566406 31.289062 121.097656 31.320312 C 120.40625 31.03125 119.660156 30.882812 118.875 30.882812 L 118.496094 30.894531 C 110.476562 31.363281 102.667969 35.382812 97.613281 41.640625 C 93.027344 47.320312 91.097656 54.28125 92.179688 61.246094 C 94.082031 73.535156 105.699219 82.804688 119.195312 82.804688 C 121.359375 82.804688 123.496094 82.554688 125.550781 82.050781 C 135.980469 79.511719 144.238281 69.257812 145.644531 57.117188 C 147.265625 43.097656 135.246094 33.558594 122.542969 31.390625 Z M 133.75 54.917969 C 134.019531 60.4375 130.550781 66.265625 125.117188 69.421875 C 123.304688 70.476562 121.261719 71.011719 119.0625 71.011719 C 113.511719 71.011719 107.6875 67.566406 104.898438 62.632812 C 102.5 58.402344 103.660156 54.453125 105.0625 51.886719 C 107.742188 46.964844 113.457031 43.171875 118.652344 42.867188 C 118.753906 42.859375 118.851562 42.847656 118.945312 42.832031 C 119.152344 42.898438 119.371094 42.953125 119.609375 42.992188 C 128.679688 44.542969 133.4375 48.554688 133.75 54.917969 Z M 133.75 54.917969 "/>
<path style=" stroke:none;fill-rule:nonzero;fill:rgb(0%,0%,0%);fill-opacity:1;" d="M 121.402344 0.921875 C 98.273438 0.921875 75.8125 6.796875 56.453125 17.910156 C 39.34375 27.738281 22.246094 48.898438 12.894531 65.511719 C -4.808594 96.964844 -4.242188 140.859375 14.339844 177.347656 C 23.800781 195.925781 38.3125 210.917969 56.308594 220.691406 C 72.890625 229.703125 99.683594 240.230469 120.601562 240.230469 C 185.007812 240.230469 237.90625 188.871094 241.027344 123.304688 C 241.085938 122.164062 241.121094 121.03125 241.140625 119.894531 C 241.503906 98.761719 231.953125 74.515625 229.015625 67.589844 C 211.589844 26.46875 170.351562 0.921875 121.402344 0.921875 Z M 225.445312 122.558594 C 222.722656 179.792969 176.667969 224.628906 120.601562 224.628906 C 103.757812 224.628906 79.917969 215.765625 63.753906 206.980469 C 48.542969 198.71875 36.265625 186.019531 28.242188 170.261719 C 11.964844 138.304688 11.277344 100.1875 26.492188 73.160156 C 34.527344 58.886719 49.761719 39.738281 64.222656 31.4375 C 81.222656 21.675781 100.996094 16.519531 121.40625 16.519531 C 163.984375 16.519531 199.714844 38.421875 214.65625 73.671875 C 220.082031 86.472656 225.789062 105.269531 225.542969 119.625 C 225.527344 120.605469 225.496094 121.578125 225.445312 122.558594 Z M 225.445312 122.558594 "/>
</g>
</svg>
