
<svg xmlns="http://www.w3.org/2000/svg" xmlns:xlink="http://www.w3.org/1999/xlink" width="320pt" height="320pt" viewBox="0 0 320 320" version="1.1">
<g >
<path style=" stroke:none;fill-rule:nonzero;fill:rgb(0%,0%,0%);fill-opacity:1;" d="M 190.625 160 C 190.625 176.914062 176.914062 190.625 160 190.625 C 143.085938 190.625 129.375 176.914062 129.375 160 C 129.375 143.085938 143.085938 129.375 160 129.375 C 176.914062 129.375 190.625 143.085938 190.625 160 Z M 190.625 160 "/>
<path style=" stroke:none;fill-rule:nonzero;fill:rgb(0%,0%,0%);fill-opacity:1;" d="M 231.621094 105.816406 C 230.148438 101.828125 227.800781 98.214844 224.75 95.25 C 221.785156 92.199219 218.175781 89.851562 214.183594 88.378906 C 210.945312 87.121094 206.082031 85.625 197.125 85.21875 C 187.4375 84.773438 184.53125 84.679688 160 84.679688 C 135.464844 84.679688 132.5625 84.773438 122.875 85.214844 C 113.914062 85.625 109.050781 87.121094 105.816406 88.378906 C 101.824219 89.851562 98.210938 92.199219 95.25 95.25 C 92.199219 98.214844 89.851562 101.824219 88.375 105.816406 C 87.117188 109.054688 85.621094 113.917969 85.214844 122.875 C 84.773438 132.5625 84.675781 135.46875 84.675781 160.003906 C 84.675781 184.535156 84.773438 187.4375 85.214844 197.128906 C 85.621094 206.085938 87.117188 210.949219 88.375 214.1875 C 89.851562 218.179688 92.195312 221.789062 95.25 224.75 C 98.210938 227.800781 101.820312 230.152344 105.8125 231.625 C 109.050781 232.882812 113.914062 234.378906 122.875 234.789062 C 132.5625 235.230469 135.464844 235.320312 159.996094 235.320312 C 184.535156 235.320312 187.4375 235.230469 197.125 234.789062 C 206.082031 234.378906 210.945312 232.882812 214.183594 231.625 C 222.195312 228.53125 228.53125 222.199219 231.621094 214.1875 C 232.878906 210.949219 234.375 206.085938 234.785156 197.128906 C 235.226562 187.4375 235.320312 184.535156 235.320312 160.003906 C 235.320312 135.46875 235.226562 132.5625 234.785156 122.875 C 234.378906 113.917969 232.878906 109.054688 231.621094 105.816406 Z M 160 207.179688 C 133.941406 207.179688 112.820312 186.058594 112.820312 160 C 112.820312 133.941406 133.941406 112.820312 160 112.820312 C 186.054688 112.820312 207.175781 133.941406 207.175781 160 C 207.175781 186.058594 186.054688 207.179688 160 207.179688 Z M 209.042969 121.984375 C 202.953125 121.984375 198.015625 117.046875 198.015625 110.957031 C 198.015625 104.867188 202.953125 99.929688 209.042969 99.929688 C 215.132812 99.929688 220.066406 104.867188 220.066406 110.957031 C 220.066406 117.046875 215.132812 121.984375 209.042969 121.984375 Z M 209.042969 121.984375 "/>
<path style=" stroke:none;fill-rule:nonzero;fill:rgb(0%,0%,0%);fill-opacity:1;" d="M 160 0 C 71.648438 0 0 71.648438 0 160 C 0 248.351562 71.648438 320 160 320 C 248.351562 320 320 248.351562 320 160 C 320 71.648438 248.351562 0 160 0 Z M 251.320312 197.878906 C 250.875 207.660156 249.320312 214.335938 247.050781 220.179688 C 242.277344 232.523438 232.523438 242.277344 220.179688 247.050781 C 214.339844 249.320312 207.660156 250.875 197.882812 251.320312 C 188.082031 251.769531 184.953125 251.875 160.003906 251.875 C 135.050781 251.875 131.921875 251.769531 122.121094 251.320312 C 112.34375 250.875 105.664062 249.320312 99.820312 247.050781 C 93.6875 244.742188 88.136719 241.128906 83.546875 236.453125 C 78.875 231.867188 75.257812 226.3125 72.953125 220.179688 C 70.679688 214.339844 69.125 207.660156 68.683594 197.882812 C 68.230469 188.082031 68.125 184.953125 68.125 160 C 68.125 135.050781 68.230469 131.917969 68.679688 122.121094 C 69.125 112.339844 70.675781 105.664062 72.945312 99.820312 C 75.253906 93.6875 78.871094 88.136719 83.546875 83.546875 C 88.136719 78.871094 93.6875 75.257812 99.820312 72.949219 C 105.664062 70.679688 112.339844 69.125 122.121094 68.679688 C 131.917969 68.234375 135.050781 68.125 160 68.125 C 184.953125 68.125 188.082031 68.234375 197.878906 68.683594 C 207.660156 69.125 214.335938 70.679688 220.179688 72.945312 C 226.3125 75.253906 231.863281 78.871094 236.453125 83.546875 C 241.128906 88.136719 244.746094 93.6875 247.050781 99.820312 C 249.324219 105.664062 250.875 112.339844 251.324219 122.121094 C 251.769531 131.917969 251.875 135.050781 251.875 160 C 251.875 184.953125 251.769531 188.082031 251.320312 197.878906 Z M 251.320312 197.878906 "/>
</g>
</svg>
