
<svg xmlns="http://www.w3.org/2000/svg" xmlns:xlink="http://www.w3.org/1999/xlink" width="49pt" height="49pt" viewBox="0 0 49 49" version="1.1">
<g >
<path style=" stroke:none;fill-rule:nonzero;fill:rgb(0%,0%,0%);fill-opacity:1;" d="M 31.703125 24.359375 C 31.703125 20.488281 28.464844 17.351562 24.472656 17.351562 C 20.476562 17.351562 17.238281 20.488281 17.238281 24.359375 C 17.238281 28.230469 20.476562 31.367188 24.472656 31.367188 C 28.464844 31.367188 31.703125 28.230469 31.703125 24.359375 Z M 31.703125 24.359375 "/>
<path style=" stroke:none;fill-rule:nonzero;fill:rgb(0%,0%,0%);fill-opacity:1;" d="M 35.667969 24.75 C 35.667969 30.742188 30.65625 35.597656 24.472656 35.597656 C 18.289062 35.597656 13.277344 30.742188 13.277344 24.75 C 13.277344 23.675781 13.441406 22.640625 13.738281 21.660156 L 10.429688 21.660156 L 10.429688 36.875 C 10.429688 37.660156 11.074219 38.304688 11.863281 38.304688 L 36.941406 38.304688 C 37.730469 38.304688 38.375 37.660156 38.375 36.875 L 38.375 21.660156 L 35.203125 21.660156 C 35.503906 22.640625 35.667969 23.675781 35.667969 24.75 Z M 35.667969 24.75 "/>
<path style=" stroke:none;fill-rule:nonzero;fill:rgb(0%,0%,0%);fill-opacity:1;" d="M 32.664062 17.554688 L 36.738281 17.554688 C 37.628906 17.554688 38.359375 16.824219 38.359375 15.933594 L 38.359375 12.054688 C 38.359375 11.160156 37.628906 10.429688 36.738281 10.429688 L 32.664062 10.429688 C 31.773438 10.429688 31.042969 11.160156 31.042969 12.054688 L 31.042969 15.933594 C 31.042969 16.824219 31.773438 17.554688 32.664062 17.554688 Z M 32.664062 17.554688 "/>
<path style=" stroke:none;fill-rule:nonzero;fill:rgb(0%,0%,0%);fill-opacity:1;" d="M 24.4375 0 C 10.941406 0 0 10.941406 0 24.4375 C 0 37.933594 10.941406 48.875 24.4375 48.875 C 37.933594 48.875 48.875 37.933594 48.875 24.4375 C 48.875 10.941406 37.933594 0 24.4375 0 Z M 37.824219 42.445312 L 11.054688 42.445312 C 8.507812 42.445312 6.429688 40.5625 6.429688 37.824219 L 6.429688 11.050781 C 6.429688 8.3125 8.507812 6.429688 11.054688 6.429688 L 37.824219 6.429688 C 40.367188 6.429688 42.445312 8.3125 42.445312 11.050781 L 42.445312 37.824219 C 42.445312 40.5625 40.363281 42.445312 37.824219 42.445312 Z M 37.824219 42.445312 "/>
</g>
</svg>
