
<svg xmlns="http://www.w3.org/2000/svg" xmlns:xlink="http://www.w3.org/1999/xlink" width="165pt" height="165pt" viewBox="0 0 165 165" version="1.1">
<g >
<path style=" stroke:none;fill-rule:nonzero;fill:rgb(0%,0%,0%);fill-opacity:1;" d="M 25.605469 90 L 112.5 90 C 116.640625 90 120 86.640625 120 82.5 C 120 78.359375 116.640625 75 112.5 75 L 25.605469 75 L 35.304688 65.304688 C 38.234375 62.375 38.234375 57.625 35.304688 54.695312 C 32.375 51.769531 27.625 51.769531 24.695312 54.695312 L 2.199219 77.195312 C 2.023438 77.367188 1.859375 77.550781 1.703125 77.742188 C 1.667969 77.785156 1.632812 77.835938 1.597656 77.882812 C 1.484375 78.03125 1.371094 78.175781 1.265625 78.328125 C 1.238281 78.375 1.210938 78.421875 1.183594 78.46875 C 1.078125 78.628906 0.980469 78.792969 0.886719 78.960938 C 0.871094 78.996094 0.855469 79.03125 0.839844 79.0625 C 0.742188 79.246094 0.652344 79.433594 0.574219 79.625 C 0.5625 79.648438 0.554688 79.671875 0.546875 79.699219 C 0.464844 79.898438 0.390625 80.105469 0.324219 80.316406 C 0.316406 80.339844 0.3125 80.367188 0.304688 80.394531 C 0.246094 80.601562 0.191406 80.808594 0.148438 81.023438 C 0.132812 81.085938 0.128906 81.152344 0.117188 81.21875 C 0.0859375 81.394531 0.0546875 81.570312 0.0390625 81.75 C 0.0117188 82 0 82.25 0 82.5 C 0 82.75 0.0117188 83 0.0390625 83.25 C 0.0546875 83.433594 0.0859375 83.609375 0.117188 83.789062 C 0.128906 83.851562 0.132812 83.914062 0.148438 83.976562 C 0.191406 84.191406 0.246094 84.402344 0.304688 84.609375 C 0.3125 84.636719 0.316406 84.660156 0.324219 84.683594 C 0.390625 84.898438 0.464844 85.101562 0.546875 85.308594 C 0.558594 85.328125 0.5625 85.351562 0.574219 85.375 C 0.652344 85.570312 0.746094 85.753906 0.839844 85.941406 C 0.855469 85.972656 0.871094 86.007812 0.886719 86.039062 C 0.980469 86.210938 1.082031 86.375 1.183594 86.535156 C 1.214844 86.578125 1.238281 86.625 1.265625 86.667969 C 1.371094 86.824219 1.484375 86.972656 1.597656 87.117188 C 1.632812 87.164062 1.667969 87.214844 1.703125 87.257812 C 1.859375 87.449219 2.023438 87.632812 2.199219 87.804688 L 24.695312 110.304688 C 26.160156 111.769531 28.082031 112.5 30 112.5 C 31.917969 112.5 33.839844 111.769531 35.304688 110.304688 C 38.230469 107.375 38.230469 102.625 35.304688 99.695312 Z M 25.605469 90 "/>
<path style=" stroke:none;fill-rule:nonzero;fill:rgb(0%,0%,0%);fill-opacity:1;" d="M 103.648438 21.148438 C 83.175781 21.148438 64.128906 31.304688 52.699219 48.316406 C 50.386719 51.753906 51.300781 56.414062 54.738281 58.722656 C 58.175781 61.035156 62.835938 60.121094 65.148438 56.683594 C 73.789062 43.824219 88.179688 36.148438 103.648438 36.148438 C 129.207031 36.148438 150 56.941406 150 82.5 C 150 108.058594 129.207031 128.851562 103.648438 128.851562 C 88.226562 128.851562 73.859375 121.210938 65.210938 108.410156 C 62.890625 104.976562 58.230469 104.074219 54.796875 106.394531 C 51.363281 108.714844 50.460938 113.375 52.78125 116.808594 C 64.222656 133.742188 83.238281 143.851562 103.648438 143.851562 C 137.476562 143.851562 165 116.328125 165 82.5 C 165 48.671875 137.476562 21.148438 103.648438 21.148438 Z M 103.648438 21.148438 "/>
</g>
</svg>
