
<svg xmlns="http://www.w3.org/2000/svg" xmlns:xlink="http://www.w3.org/1999/xlink" width="233pt" height="233pt" viewBox="0 0 233 233" version="1.1">
<g >
<path style=" stroke:none;fill-rule:nonzero;fill:rgb(0%,0%,0%);fill-opacity:1;" d="M 228.695312 35.164062 C 228.558594 31.167969 225.933594 27.363281 220.769531 27.535156 C 149.0625 29.894531 77.195312 22.113281 5.9375 33.320312 C -0.109375 34.269531 -1.132812 39.949219 1.054688 44.277344 C 1.074219 44.355469 1.097656 44.433594 1.117188 44.511719 C 0.695312 45.535156 0.480469 46.726562 0.578125 48.113281 C 4.121094 97.597656 9.464844 146.914062 14.300781 196.28125 C 14.351562 196.808594 14.46875 197.296875 14.597656 197.773438 C 14.511719 201.953125 17.140625 206.089844 22.53125 205.882812 C 89.300781 203.28125 156.238281 205.578125 222.828125 199.023438 C 223.402344 198.964844 223.929688 198.84375 224.441406 198.703125 C 228.386719 198.484375 232.257812 195.863281 232.429688 190.789062 C 234.203125 139.519531 231.144531 88.347656 229.003906 37.136719 C 228.972656 36.433594 228.859375 35.777344 228.695312 35.164062 Z M 216.175781 133.363281 C 205.03125 117.324219 192.425781 102.371094 179.191406 87.917969 C 191.136719 79.84375 202.648438 71.132812 213.613281 61.644531 C 214.675781 85.550781 215.707031 109.453125 216.175781 133.363281 Z M 208.335938 44.261719 C 182.246094 67.933594 152.90625 86.761719 121.339844 102.367188 C 89.578125 86.550781 60.777344 65.941406 31.191406 46.527344 C 89.953125 40.246094 149.296875 45.261719 208.335938 44.261719 Z M 17.78125 57.394531 C 33.597656 67.652344 49.128906 78.359375 64.933594 88.59375 C 51.707031 110.519531 37.25 131.765625 26.644531 154.921875 C 23.414062 122.4375 20.253906 89.949219 17.78125 57.394531 Z M 216.148438 183.117188 C 154.574219 188.652344 92.714844 187.121094 30.980469 189.164062 C 31.644531 188.34375 32.179688 187.34375 32.527344 186.121094 C 41.714844 153.492188 61.476562 126.035156 78.851562 97.398438 C 90.617188 104.660156 102.617188 111.539062 115.097656 117.644531 C 115.242188 117.714844 115.382812 117.742188 115.527344 117.804688 C 117.882812 119.824219 121.246094 120.714844 124.777344 119.019531 C 138.679688 112.335938 152.148438 104.984375 165.164062 96.964844 C 184.164062 117.519531 201.859375 138.945312 215.71875 163.390625 C 215.929688 163.765625 216.175781 164.058594 216.414062 164.375 C 216.378906 170.625 216.304688 176.871094 216.148438 183.117188 Z M 216.148438 183.117188 "/>
</g>
</svg>
