
<svg xmlns="http://www.w3.org/2000/svg" xmlns:xlink="http://www.w3.org/1999/xlink" width="256pt" height="256pt" viewBox="0 0 256 256" version="1.1">
<g >
<path style=" stroke:none;fill-rule:nonzero;fill:rgb(0%,0%,0%);fill-opacity:1;" d="M 253.730469 122.515625 L 217.085938 85.875 C 214.058594 82.84375 209.144531 82.84375 206.117188 85.875 C 203.085938 88.902344 203.085938 93.816406 206.117188 96.84375 L 229.511719 120.242188 L 135.757812 120.242188 L 135.757812 26.488281 L 159.15625 49.882812 C 160.667969 51.398438 162.65625 52.15625 164.640625 52.15625 C 171.488281 52.15625 175.027344 43.8125 170.125 38.914062 L 133.484375 2.269531 C 130.457031 -0.757812 125.542969 -0.757812 122.515625 2.269531 L 85.875 38.914062 C 82.84375 41.941406 82.84375 46.855469 85.875 49.882812 C 88.902344 52.914062 93.816406 52.914062 96.84375 49.882812 L 120.242188 26.488281 L 120.242188 120.242188 L 26.488281 120.242188 L 49.882812 96.84375 C 52.914062 93.816406 52.914062 88.902344 49.882812 85.875 C 46.855469 82.84375 41.941406 82.84375 38.914062 85.875 L 2.269531 122.515625 C -0.757812 125.542969 -0.757812 130.457031 2.269531 133.484375 L 38.914062 170.125 C 41.941406 173.15625 46.855469 173.15625 49.882812 170.125 C 52.914062 167.097656 52.914062 162.183594 49.882812 159.15625 L 26.488281 135.757812 L 120.242188 135.757812 L 120.242188 229.511719 L 96.84375 206.117188 C 93.816406 203.085938 88.902344 203.085938 85.875 206.117188 C 82.84375 209.144531 82.84375 214.058594 85.875 217.085938 L 122.515625 253.730469 C 125.542969 256.757812 130.457031 256.757812 133.484375 253.730469 L 170.125 217.085938 C 173.15625 214.058594 173.15625 209.144531 170.125 206.117188 C 167.097656 203.085938 162.183594 203.085938 159.15625 206.117188 L 135.757812 229.511719 L 135.757812 135.757812 L 229.511719 135.757812 L 206.117188 159.15625 C 203.085938 162.183594 203.085938 167.097656 206.117188 170.125 C 209.144531 173.15625 214.058594 173.15625 217.089844 170.125 L 253.730469 133.484375 C 256.757812 130.457031 256.757812 125.542969 253.730469 122.515625 Z M 253.730469 122.515625 "/>
</g>
</svg>
