
<svg xmlns="http://www.w3.org/2000/svg" xmlns:xlink="http://www.w3.org/1999/xlink" width="49pt" height="49pt" viewBox="0 0 49 49" version="1.1">
<g >
<path style=" stroke:none;fill-rule:nonzero;fill:rgb(0%,0%,0%);fill-opacity:1;" d="M 24.460938 20.253906 C 26.792969 20.246094 28.652344 18.371094 28.644531 16.03125 C 28.636719 13.691406 26.773438 11.832031 24.4375 11.828125 C 22.085938 11.828125 20.203125 13.722656 20.222656 16.082031 C 20.238281 18.414062 22.121094 20.261719 24.460938 20.253906 Z M 24.460938 20.253906 "/>
<path style=" stroke:none;fill-rule:nonzero;fill:rgb(0%,0%,0%);fill-opacity:1;" d="M 24.4375 0 C 10.941406 0 0 10.941406 0 24.4375 C 0 37.933594 10.941406 48.875 24.4375 48.875 C 37.933594 48.875 48.875 37.933594 48.875 24.4375 C 48.875 10.941406 37.933594 0 24.4375 0 Z M 24.472656 7.429688 C 29.234375 7.445312 33.054688 11.339844 33.027344 16.152344 C 33.003906 20.851562 29.121094 24.664062 24.371094 24.648438 C 19.664062 24.628906 15.808594 20.730469 15.835938 16.019531 C 15.863281 11.257812 19.722656 7.417969 24.472656 7.429688 Z M 34.113281 28.027344 C 33.0625 29.109375 31.792969 29.890625 30.386719 30.4375 C 29.058594 30.953125 27.597656 31.210938 26.15625 31.382812 C 26.375 31.621094 26.476562 31.738281 26.613281 31.875 C 28.570312 33.84375 30.539062 35.800781 32.492188 37.773438 C 33.15625 38.449219 33.292969 39.28125 32.929688 40.0625 C 32.527344 40.917969 31.632812 41.480469 30.753906 41.421875 C 30.195312 41.382812 29.761719 41.105469 29.375 40.714844 C 27.898438 39.230469 26.390625 37.769531 24.945312 36.253906 C 24.523438 35.8125 24.320312 35.898438 23.949219 36.28125 C 22.460938 37.8125 20.949219 39.316406 19.429688 40.816406 C 18.746094 41.488281 17.9375 41.609375 17.144531 41.226562 C 16.300781 40.820312 15.765625 39.960938 15.808594 39.09375 C 15.835938 38.511719 16.125 38.066406 16.527344 37.664062 C 18.464844 35.730469 20.398438 33.789062 22.328125 31.851562 C 22.457031 31.722656 22.578125 31.585938 22.761719 31.386719 C 20.128906 31.113281 17.75 30.460938 15.714844 28.871094 C 15.460938 28.671875 15.199219 28.480469 14.96875 28.261719 C 14.078125 27.40625 13.988281 26.425781 14.695312 25.414062 C 15.296875 24.550781 16.308594 24.320312 17.363281 24.816406 C 17.566406 24.910156 17.761719 25.03125 17.945312 25.160156 C 21.738281 27.765625 26.949219 27.839844 30.757812 25.277344 C 31.136719 24.988281 31.539062 24.753906 32.007812 24.632812 C 32.914062 24.398438 33.761719 24.734375 34.25 25.527344 C 34.804688 26.4375 34.800781 27.324219 34.113281 28.027344 Z M 34.113281 28.027344 "/>
</g>
</svg>
