
<svg xmlns="http://www.w3.org/2000/svg" xmlns:xlink="http://www.w3.org/1999/xlink" width="242pt" height="242pt" viewBox="0 0 242 242" version="1.1">
	<g>
	<path style=" stroke:none;fill-rule:nonzero;fill:rgb(0%,0%,0%);fill-opacity:1;" d="M 144.386719 84.441406 C 143.484375 83.910156 142.480469 82.496094 142.234375 81.421875 C 141.082031 76.300781 139.101562 71.675781 136.351562 67.671875 C 135.882812 66.988281 135.320312 66.414062 134.675781 65.957031 C 133.644531 65.230469 132.339844 64.855469 131.808594 64.722656 C 131.621094 64.488281 131.269531 63.851562 131.03125 62.972656 C 124.8125 39.851562 113.132812 19.328125 96.3125 1.964844 C 95.078125 0.6875 93.570312 0.0117188 91.921875 0 C 90.609375 0 89.457031 0.453125 88.832031 0.699219 L 88.671875 0.769531 C 88.453125 0.8125 88.230469 0.863281 87.996094 0.925781 C 57.421875 9.667969 40.402344 38.480469 45.652344 72.621094 C 46.144531 75.820312 48.585938 77.75 51.753906 77.464844 C 53.003906 77.351562 54.210938 76.898438 54.9375 76.628906 C 55.125 76.554688 55.273438 76.496094 55.375 76.46875 C 55.738281 76.371094 56.09375 76.238281 56.464844 76.054688 C 67.710938 70.613281 78.632812 71.503906 88.265625 78.65625 C 88.917969 79.140625 89.445312 79.585938 89.746094 79.867188 C 89.789062 82.527344 90.015625 85.421875 90.453125 88.933594 C 90.542969 89.664062 90.617188 90.324219 90.664062 90.78125 C 56.457031 117.894531 35.785156 156.851562 32.429688 200.546875 C 32.398438 200.917969 32.40625 201.257812 32.433594 201.589844 L 32.460938 202.042969 C 32.488281 202.617188 32.527344 203.402344 32.65625 204.054688 C 32.78125 204.660156 32.988281 205.253906 33.277344 205.824219 C 44.296875 227.523438 68 239.238281 105.738281 241.644531 C 110.179688 241.925781 114.761719 242.074219 119.359375 242.074219 C 119.363281 242.074219 119.363281 242.074219 119.363281 242.074219 C 143.691406 242.074219 170.316406 238.023438 196.359375 230.371094 C 196.566406 230.308594 196.761719 230.238281 196.996094 230.1875 C 197.625 230.121094 198.929688 229.96875 200.089844 229.210938 C 201.003906 228.617188 201.726562 227.746094 202.238281 226.621094 C 213.117188 202.96875 212.011719 174.402344 199.125 146.191406 C 187.589844 120.9375 167.128906 97.855469 144.386719 84.441406 Z M 100.09375 99.839844 C 100.386719 99.609375 100.640625 99.367188 100.773438 99.203125 C 100.953125 99.082031 101.890625 98.742188 103.132812 98.613281 C 111.625 97.746094 122.804688 96.558594 134.019531 95.035156 C 135.230469 94.871094 137.078125 95.253906 138.003906 95.8125 C 186.996094 125.089844 205.730469 181.761719 192.492188 216.324219 C 192.132812 217.269531 190.882812 218.382812 189.871094 218.667969 C 165.734375 225.460938 140.707031 228.910156 115.484375 228.910156 L 115.046875 228.910156 C 80.382812 228.855469 57.316406 220.015625 46.492188 202.628906 C 45.972656 201.789062 45.601562 201.070312 45.449219 200.730469 C 48.5 160.996094 67.910156 125.164062 100.09375 99.839844 Z M 117.96875 65.96875 C 117.871094 66.128906 117.675781 66.332031 117.082031 66.414062 C 116.363281 66.414062 115.558594 65.882812 115.25 65.203125 C 110.476562 54.660156 103.851562 45.824219 95.558594 38.953125 C 94.308594 37.914062 92.835938 37.367188 91.296875 37.367188 C 88.40625 37.367188 85.605469 39.320312 84.636719 42.007812 C 83.808594 44.296875 84.515625 46.660156 86.523438 48.324219 C 93.21875 53.871094 98.585938 60.699219 102.476562 68.601562 C 102.605469 68.859375 102.621094 69.101562 102.527344 69.308594 C 102.429688 69.527344 102.203125 69.695312 101.894531 69.777344 L 100.808594 70.066406 C 99.890625 70.316406 98.230469 69.964844 97.4375 69.34375 C 89.234375 62.90625 80.285156 59.640625 70.839844 59.640625 C 66.792969 59.640625 62.640625 60.253906 58.5 61.457031 C 58.113281 61.570312 57.609375 61.714844 57.601562 60.886719 C 57.355469 39.257812 69.042969 21.527344 88.097656 14.613281 C 88.898438 14.328125 90.3125 14.699219 90.894531 15.359375 C 103.691406 29.761719 112.835938 46.496094 118.066406 65.089844 C 118.160156 65.410156 118.125 65.722656 117.96875 65.96875 Z M 128.722656 82.367188 C 128.582031 82.589844 128.320312 82.742188 128 82.785156 C 119.496094 83.878906 110.941406 84.78125 104.285156 85.449219 C 103.628906 85.449219 103.078125 84.996094 103.03125 84.414062 C 102.976562 83.664062 103.636719 82.785156 104.421875 82.570312 C 111.1875 80.71875 118.300781 79.226562 125.5625 78.132812 C 125.644531 78.117188 125.726562 78.113281 125.8125 78.113281 C 126.648438 78.113281 127.597656 78.671875 127.882812 79.335938 C 128.214844 80.09375 128.511719 80.871094 128.777344 81.660156 C 128.867188 81.921875 128.847656 82.167969 128.722656 82.367188 Z M 128.722656 82.367188 "/>
	<path style=" stroke:none;fill-rule:nonzero;fill:rgb(0%,0%,0%);fill-opacity:1;" d="M 100.964844 195.539062 C 104.957031 197.902344 109.972656 200.152344 115.085938 201.871094 C 115.898438 202.144531 116.558594 203.109375 116.5 203.929688 C 116.335938 206.25 116.164062 208.566406 115.960938 210.882812 C 115.785156 212.964844 116.410156 214.847656 117.769531 216.335938 C 119.210938 217.902344 121.355469 218.839844 123.507812 218.839844 C 126.902344 218.839844 129.285156 216.628906 129.582031 213.207031 C 129.773438 210.964844 129.941406 208.722656 130.101562 206.476562 C 130.144531 205.8125 130.683594 205.335938 131.476562 205.335938 C 131.480469 205.335938 131.480469 205.335938 131.484375 205.335938 C 132.546875 205.40625 133.605469 205.449219 134.648438 205.449219 C 144.636719 205.449219 152.03125 201.8125 156.015625 194.941406 C 161.894531 184.792969 151.414062 173.910156 145.148438 167.410156 L 144.527344 166.761719 C 141.078125 163.167969 137.457031 159.839844 133.75 156.464844 C 132.96875 155.753906 132.277344 154.144531 132.296875 153.09375 C 132.414062 147.058594 132.511719 141.015625 132.605469 134.976562 C 132.617188 134.386719 133.007812 133.96875 133.726562 133.96875 C 133.734375 133.96875 133.746094 133.96875 133.757812 133.96875 L 136.992188 134.421875 C 138.683594 134.660156 140.296875 134.890625 141.800781 135.070312 C 146.625 135.644531 149.566406 131.769531 149.78125 128.148438 C 149.957031 125.171875 148.300781 121.949219 144.203125 121.460938 C 142.867188 121.304688 141.347656 121.089844 139.691406 120.855469 C 138.003906 120.621094 136.1875 120.367188 134.28125 120.128906 C 133.507812 120.03125 132.867188 119.300781 132.882812 118.535156 L 132.976562 113.453125 C 133.015625 111.644531 132.449219 110.089844 131.34375 108.960938 C 130.203125 107.796875 128.570312 107.15625 126.742188 107.15625 C 123.152344 107.15625 119.289062 109.660156 119.191406 114.304688 L 119.125 117.925781 C 119.113281 118.667969 118.464844 119.320312 117.6875 119.375 C 109.152344 120 103.492188 122.667969 100.386719 127.527344 C 94.519531 136.71875 104.359375 146.902344 110.238281 152.984375 L 110.894531 153.660156 C 112.640625 155.476562 114.605469 157.410156 116.90625 159.570312 C 117.695312 160.316406 118.367188 161.90625 118.34375 162.980469 C 118.128906 171.878906 117.851562 179.871094 117.488281 187.410156 C 117.46875 187.769531 117.238281 188.140625 116.71875 187.929688 C 112.578125 186.242188 109.230469 184.425781 107.152344 183.195312 C 103.324219 180.933594 98.914062 183.054688 97.734375 187.382812 C 96.839844 190.644531 98.109375 193.847656 100.964844 195.539062 Z M 118.851562 134.429688 L 118.738281 141.941406 C 117.582031 140.679688 116.5625 139.5 115.636719 138.355469 C 114.742188 137.253906 113.765625 135.960938 113.050781 134.535156 C 114.441406 134.003906 115.992188 133.628906 117.773438 133.382812 L 117.921875 133.375 C 118.234375 133.375 118.441406 133.519531 118.558594 133.636719 C 118.753906 133.835938 118.855469 134.117188 118.851562 134.429688 Z M 131.09375 190.257812 C 131.378906 184.644531 131.605469 179.023438 131.789062 173.398438 C 135.085938 176.632812 137.714844 179.476562 140.035156 182.332031 L 140.296875 182.644531 C 142.078125 184.824219 143.757812 186.882812 143.453125 188.074219 C 143.25 188.863281 142.085938 189.699219 140.078125 190.503906 C 137.890625 191.386719 135.242188 191.796875 132.304688 191.6875 C 131.996094 191.679688 131.703125 191.535156 131.476562 191.289062 C 131.210938 191.007812 131.078125 190.636719 131.09375 190.257812 Z M 131.09375 190.257812 "/>
	</g>
</svg>
