
<svg xmlns="http://www.w3.org/2000/svg" xmlns:xlink="http://www.w3.org/1999/xlink" width="233pt" height="233pt" viewBox="0 0 233 233" version="1.1">
<g >
<path style=" stroke:none;fill-rule:nonzero;fill:rgb(0%,0%,0%);fill-opacity:1;" d="M 39.042969 218.605469 C 38.191406 222.394531 40.300781 227.257812 45.371094 227.765625 C 93.230469 232.511719 141.554688 237.363281 188.738281 225.25 C 191.960938 224.421875 193.441406 222.023438 193.582031 219.484375 C 207.269531 151.101562 200.820312 81.992188 193.746094 13.445312 C 193.726562 13.238281 193.664062 13.058594 193.628906 12.863281 C 193.679688 10.160156 192.226562 7.578125 188.738281 6.863281 C 141.886719 -2.71875 89.132812 -2.203125 42.421875 8 C 38.707031 8.8125 37.289062 11.726562 37.554688 14.628906 C 27.300781 82.15625 30.804688 151.042969 39.042969 218.605469 Z M 50.429688 20.261719 C 91.878906 11.804688 139.136719 11.304688 180.710938 19.183594 C 187.507812 83.554688 193.152344 148.851562 180.929688 213.066406 C 138.566406 222.996094 95.160156 219.0625 52.238281 214.800781 C 44.558594 150.484375 40.953125 84.554688 50.429688 20.261719 Z M 50.429688 20.261719 "/>
<path style=" stroke:none;fill-rule:nonzero;fill:rgb(0%,0%,0%);fill-opacity:1;" d="M 61.160156 186.1875 C 62.429688 187.972656 64.410156 189.066406 66.734375 189.277344 L 67.050781 189.304688 C 84.734375 190.910156 103.011719 192.566406 121.015625 192.566406 C 138.742188 192.566406 154.285156 190.941406 168.53125 187.59375 C 171.609375 186.871094 173.65625 184.636719 173.925781 181.730469 C 183.417969 138.175781 179.316406 84.609375 174.050781 37.9375 C 174.03125 37.804688 174.007812 37.667969 173.980469 37.542969 C 173.878906 34.441406 171.730469 32.066406 168.417969 31.441406 C 152.574219 28.480469 135.808594 26.976562 118.574219 26.976562 C 99.898438 26.976562 81.667969 28.726562 64.378906 32.183594 C 60.355469 32.988281 58.726562 36.054688 58.847656 38.871094 C 49.972656 92.679688 56.554688 155.632812 59.875 180.695312 C 59.566406 182.589844 60.03125 184.605469 61.160156 186.1875 Z M 72.816406 44.859375 C 87.261719 42.285156 103.066406 40.929688 118.644531 40.929688 C 132.945312 40.929688 146.824219 42.023438 159.925781 44.171875 C 164.121094 80.992188 168.46875 133.535156 160.234375 175.027344 C 148.296875 177.453125 135.332031 178.628906 120.671875 178.628906 C 105.652344 178.628906 90.640625 177.425781 74.117188 175.9375 C 70.980469 151.203125 65.320312 93.621094 72.816406 44.859375 Z M 72.816406 44.859375 "/>
<path style=" stroke:none;fill-rule:nonzero;fill:rgb(0%,0%,0%);fill-opacity:1;" d="M 117.015625 198.375 C 107.074219 198.375 107.074219 213.789062 117.015625 213.789062 C 126.957031 213.789062 126.957031 198.375 117.015625 198.375 Z M 117.015625 198.375 "/>
</g>
</svg>
