
<svg xmlns="http://www.w3.org/2000/svg" xmlns:xlink="http://www.w3.org/1999/xlink" width="228pt" height="228pt" viewBox="0 0 228 228" version="1.1">
<g >
<path style=" stroke:none;fill-rule:nonzero;fill:rgb(0%,0%,0%);fill-opacity:1;" d="M 115.507812 0 C 112.230469 0 108.816406 0.109375 105.511719 0.316406 L 101.480469 0.316406 C 100.386719 0.316406 99.316406 0.550781 98.289062 1.019531 C 73.027344 1.523438 51.429688 15.308594 41.832031 37.097656 C 32.417969 58.472656 36.933594 82.75 41.148438 99.152344 C 50.835938 136.867188 72.875 177.382812 102.230469 211.96875 C 98.441406 211.875 94.65625 211.773438 90.914062 211.671875 C 84.726562 211.507812 78.542969 211.34375 72.355469 211.199219 L 72.070312 211.199219 C 66.519531 211.199219 63.566406 215 63.523438 218.757812 C 63.476562 222.652344 66.453125 226.664062 72.234375 226.796875 C 78.414062 226.941406 84.589844 227.109375 90.769531 227.273438 C 108.414062 227.738281 126.660156 228.222656 144.628906 228.222656 C 149.792969 228.222656 154.957031 228.1875 160.128906 228.097656 C 165.902344 227.996094 168.890625 224.003906 168.851562 220.121094 C 168.820312 216.332031 165.855469 212.496094 160.039062 212.496094 C 160.039062 212.496094 160.035156 212.496094 160.03125 212.496094 C 154.898438 212.589844 149.761719 212.625 144.625 212.625 C 140.460938 212.625 136.277344 212.59375 132.089844 212.550781 C 163.425781 179.175781 185.8125 131.230469 191.160156 85.246094 C 193.164062 68.042969 192.289062 43.359375 176.769531 23.472656 C 164.625 7.898438 144.011719 0 115.507812 0 Z M 174.507812 90.253906 C 168.300781 131.753906 146.433594 175.460938 117.226562 204.960938 C 94.097656 178.40625 75.089844 146.492188 62.179688 112.515625 C 53.5625 89.828125 50.613281 70.90625 53.167969 54.664062 C 56.667969 32.4375 75.917969 16.914062 99.984375 16.914062 C 100.460938 16.914062 100.933594 16.917969 101.628906 16.9375 C 102.757812 16.9375 103.832031 16.710938 104.820312 16.257812 L 107.523438 16.257812 C 108.035156 16.257812 108.558594 16.203125 109.109375 16.085938 C 111.25 15.992188 113.402344 15.945312 115.554688 15.945312 C 138.4375 15.945312 154.65625 21.964844 165.140625 34.351562 C 175.136719 46.160156 178.289062 64.96875 174.507812 90.253906 Z M 174.507812 90.253906 "/>
<path style=" stroke:none;fill-rule:nonzero;fill:rgb(0%,0%,0%);fill-opacity:1;" d="M 114.277344 25.152344 C 113.78125 25.152344 113.289062 25.160156 112.964844 25.175781 C 89.398438 24.230469 72.230469 39.234375 70.691406 61.808594 C 68.925781 87.652344 92.269531 106.824219 115.183594 108.511719 C 116.191406 108.589844 117.214844 108.625 118.230469 108.625 C 140.835938 108.625 162.339844 91.109375 165.191406 70.375 C 166.617188 59.972656 163.800781 50.375 157.035156 42.613281 C 147.789062 32.007812 131.003906 25.152344 114.277344 25.152344 Z M 148.195312 68.902344 C 146.285156 82.785156 129.75 91.378906 115.386719 91.378906 C 98.683594 91.308594 88.738281 77.25 88.765625 63.699219 C 88.785156 53.351562 94.742188 42.296875 111.386719 42.296875 C 111.699219 42.296875 112.015625 42.300781 112.386719 42.308594 C 112.472656 42.316406 112.5625 42.316406 112.648438 42.316406 C 113.113281 42.304688 113.582031 42.296875 114.054688 42.296875 C 123.324219 42.296875 136.675781 45.195312 143.804688 53.375 C 147.542969 57.660156 149.015625 62.886719 148.195312 68.902344 Z M 148.195312 68.902344 "/>
</g>
</svg>
