
<svg xmlns="http://www.w3.org/2000/svg" xmlns:xlink="http://www.w3.org/1999/xlink" width="249pt" height="248pt" viewBox="0 0 249 248" version="1.1">
	<g>
	<path style=" stroke:none;fill-rule:nonzero;fill:rgb(0%,0%,0%);fill-opacity:1;" d="M 175.601562 127.957031 C 175.421875 127.863281 175.238281 127.777344 175.046875 127.695312 C 175.730469 108.449219 174.976562 91.261719 172.753906 75.195312 C 169.664062 52.894531 162.800781 20.957031 138.96875 1.171875 C 138.03125 0.394531 136.945312 0 135.753906 0 C 122.707031 0 99.03125 52.246094 98.8125 52.769531 C 89.273438 75.835938 83.804688 98.058594 82.09375 120.699219 C 81.960938 122.410156 81.871094 124.121094 81.792969 125.835938 C 81.476562 125.929688 81.171875 126.042969 80.875 126.179688 C 54.945312 138.367188 39.582031 166.257812 38.703125 202.734375 L 38.332031 203.578125 C 37.625 205.324219 37.746094 207.046875 38.683594 208.433594 C 39.726562 209.972656 41.695312 210.929688 43.820312 210.929688 C 46.242188 210.929688 48.335938 209.710938 49.4375 207.660156 C 49.929688 207.027344 50.265625 206.289062 50.453125 205.46875 C 57.304688 189.863281 70.816406 177.238281 88.53125 169.871094 C 88.804688 169.917969 89.109375 169.953125 89.449219 169.953125 C 91.667969 169.949219 93.882812 169.925781 96.097656 169.902344 L 97.683594 169.886719 L 97.683594 183.699219 C 97.683594 184.148438 97.734375 184.585938 97.835938 185.042969 C 97.640625 187.949219 99.308594 190.3125 102.132812 191.113281 C 102.914062 191.335938 103.699219 191.523438 104.480469 191.714844 L 104.558594 191.734375 C 103.386719 209.6875 113 222.328125 123.171875 235.691406 C 125.453125 238.6875 127.804688 241.78125 130.171875 245.105469 C 131.105469 246.996094 133.25 248.214844 135.671875 248.214844 C 138.335938 248.214844 140.578125 246.699219 141.53125 244.261719 C 143.527344 239.144531 145.902344 234.347656 148.207031 229.699219 C 153.773438 218.472656 159.042969 207.84375 158.410156 194.210938 C 160.945312 193.832031 163.574219 191.992188 163.890625 188.566406 C 164.488281 182.136719 164.648438 175.800781 164.675781 168.402344 L 165.8125 168.367188 C 165.960938 168.359375 166.101562 168.339844 166.277344 168.308594 C 186.785156 171.421875 196.226562 189.21875 198.222656 204.878906 C 198.691406 208.53125 201.859375 210.4375 204.757812 210.4375 C 207.449219 210.4375 209.558594 208.886719 210.070312 206.546875 C 210.433594 205.851562 210.660156 205.089844 210.746094 204.277344 C 214.367188 170.171875 201.226562 141.640625 175.601562 127.957031 Z M 53.6875 179.625 C 57.179688 165.863281 64.867188 149.351562 81.683594 139.300781 C 81.863281 145.804688 82.367188 152.519531 83.1875 159.304688 C 71.480469 164.414062 61.578125 171.234375 53.6875 179.625 Z M 136.722656 226.554688 C 135.960938 228.070312 135.191406 229.589844 134.4375 231.132812 C 133.933594 230.5 133.429688 229.867188 132.921875 229.230469 C 124.480469 218.667969 115.765625 207.757812 116.238281 194.246094 C 117.691406 194.488281 119.214844 194.707031 120.851562 194.914062 C 122.226562 201.628906 125.117188 207.9375 129.664062 214.152344 C 130.582031 216.554688 132.96875 218.28125 135.417969 218.28125 C 136.914062 218.28125 138.3125 217.660156 139.460938 216.488281 C 140.808594 215.121094 142.09375 213.671875 143.339844 212.136719 C 141.542969 216.984375 139.179688 221.679688 136.722656 226.554688 Z M 133.464844 195.90625 C 135.613281 195.957031 137.761719 195.945312 139.917969 195.882812 C 138.6875 198.109375 137.398438 200.152344 136.019531 202.054688 C 134.988281 200.085938 134.132812 198.027344 133.464844 195.90625 Z M 152.132812 182.949219 C 138.328125 184.84375 124.035156 184.035156 109.824219 180.585938 L 109.824219 169.785156 C 124.203125 169.566406 138.796875 169.171875 152.523438 168.761719 C 152.503906 172.824219 152.429688 177.832031 152.132812 182.949219 Z M 160.933594 156.867188 C 159.207031 157.269531 151.855469 158.082031 120.789062 158.082031 C 108.980469 158.082031 98.476562 157.953125 95.210938 157.871094 C 89.410156 107.023438 102.910156 58.734375 135.359375 14.308594 C 153.839844 33.085938 159.0625 60.8125 161.53125 83 C 163.917969 104.394531 163.726562 127.894531 160.933594 156.867188 Z M 173.003906 157.757812 C 173.546875 152.125 174.003906 146.554688 174.363281 141.15625 C 185.453125 148.511719 192.933594 159.054688 196.660156 172.582031 C 190.40625 165.367188 182.339844 160.296875 173.003906 157.757812 Z M 173.003906 157.757812 "/>
	<path style=" stroke:none;fill-rule:nonzero;fill:rgb(0%,0%,0%);fill-opacity:1;" d="M 150.1875 75.039062 C 146.242188 69.847656 140.683594 66.988281 134.542969 66.988281 C 125.359375 66.988281 116.25 73.359375 111.335938 83.21875 C 108.824219 88.257812 107.453125 94.191406 107.257812 100.863281 C 107.039062 108.464844 110.21875 116.582031 115.550781 122.050781 C 119.6875 126.289062 124.644531 128.53125 129.886719 128.53125 C 131.964844 128.53125 134.082031 128.167969 136.175781 127.457031 C 142.621094 125.257812 148.195312 119.828125 151.859375 112.160156 C 156.417969 102.632812 157.351562 91.023438 154.234375 82.585938 C 153.175781 79.71875 151.8125 77.179688 150.1875 75.039062 Z M 142.441406 102.199219 C 141.234375 107.679688 136.578125 112.917969 131.617188 114.378906 C 127.285156 115.652344 123.523438 113.75 121.164062 108.996094 C 118.457031 103.53125 119.59375 94.820312 122.046875 89.398438 C 123.613281 85.917969 129.253906 79.523438 133.757812 79.523438 C 134.285156 79.523438 134.792969 79.613281 135.261719 79.792969 C 142.460938 82.53125 144.074219 94.777344 142.441406 102.199219 Z M 142.441406 102.199219 "/>
	</g>
</svg>
