
<svg xmlns="http://www.w3.org/2000/svg" xmlns:xlink="http://www.w3.org/1999/xlink" width="320pt" height="320pt" viewBox="0 0 320 320" version="1.1">
<g >
<path style=" stroke:none;fill-rule:nonzero;fill:rgb(0%,0%,0%);fill-opacity:1;" d="M 160 83.503906 C 117.820312 83.503906 83.507812 117.820312 83.507812 160 C 83.507812 202.179688 117.820312 236.492188 160 236.492188 C 202.179688 236.492188 236.492188 202.179688 236.492188 160 C 236.492188 117.820312 202.179688 83.507812 160 83.507812 Z M 160 217.371094 C 128.367188 217.371094 102.628906 191.632812 102.628906 160 C 102.628906 128.367188 128.367188 102.628906 160 102.628906 C 191.632812 102.628906 217.371094 128.367188 217.371094 160 C 217.371094 191.632812 191.632812 217.371094 160 217.371094 Z M 160 217.371094 "/>
<path style=" stroke:none;fill-rule:nonzero;fill:rgb(0%,0%,0%);fill-opacity:1;" d="M 312.46875 123.5625 L 287.875 118.21875 C 285.738281 111.667969 283.089844 105.28125 279.960938 99.128906 L 293.578125 77.953125 C 296.007812 74.167969 295.472656 69.199219 292.292969 66.019531 L 253.980469 27.703125 C 250.800781 24.527344 245.832031 23.992188 242.046875 26.421875 L 220.867188 40.039062 C 214.71875 36.910156 208.328125 34.261719 201.78125 32.125 L 196.4375 7.527344 C 195.480469 3.132812 191.589844 0 187.09375 0 L 132.90625 0 C 128.410156 0 124.519531 3.132812 123.566406 7.527344 L 118.21875 32.125 C 111.671875 34.261719 105.285156 36.910156 99.132812 40.039062 L 77.953125 26.421875 C 74.167969 23.992188 69.199219 24.527344 66.019531 27.703125 L 27.707031 66.019531 C 24.527344 69.199219 23.992188 74.167969 26.421875 77.953125 L 40.039062 99.128906 C 36.910156 105.28125 34.261719 111.667969 32.125 118.21875 L 7.53125 123.5625 C 3.136719 124.519531 0 128.410156 0 132.90625 L 0 187.09375 C 0 191.589844 3.136719 195.476562 7.53125 196.4375 L 32.125 201.78125 C 34.261719 208.328125 36.910156 214.71875 40.039062 220.867188 L 26.421875 242.046875 C 23.992188 245.832031 24.527344 250.800781 27.707031 253.980469 L 66.019531 292.292969 C 69.199219 295.472656 74.167969 296.007812 77.953125 293.578125 L 99.132812 279.960938 C 105.285156 283.089844 111.671875 285.738281 118.21875 287.875 L 123.566406 312.46875 C 124.519531 316.863281 128.410156 320 132.90625 320 L 187.09375 320 C 191.589844 320 195.480469 316.863281 196.4375 312.46875 L 201.78125 287.875 C 208.328125 285.738281 214.71875 283.089844 220.867188 279.960938 L 242.046875 293.578125 C 245.832031 296.007812 250.800781 295.476562 253.980469 292.292969 L 292.292969 253.980469 C 295.472656 250.800781 296.007812 245.832031 293.578125 242.046875 L 279.960938 220.867188 C 283.089844 214.71875 285.738281 208.328125 287.875 201.78125 L 312.46875 196.4375 C 316.863281 195.476562 320 191.589844 320 187.09375 L 320 132.90625 C 320 128.410156 316.863281 124.523438 312.46875 123.566406 Z M 300.875 179.382812 L 278.324219 184.289062 C 274.859375 185.042969 272.097656 187.648438 271.144531 191.0625 C 268.667969 199.953125 265.101562 208.546875 260.550781 216.609375 C 258.808594 219.699219 258.914062 223.5 260.835938 226.480469 L 273.324219 245.90625 L 245.90625 273.324219 L 226.480469 260.835938 C 223.5 258.914062 219.699219 258.808594 216.613281 260.550781 C 208.546875 265.101562 199.953125 268.667969 191.0625 271.144531 C 187.648438 272.097656 185.042969 274.859375 184.289062 278.324219 L 179.382812 300.875 L 140.617188 300.875 L 135.710938 278.324219 C 134.957031 274.859375 132.351562 272.097656 128.9375 271.144531 C 120.046875 268.667969 111.453125 265.101562 103.390625 260.550781 C 100.300781 258.808594 96.5 258.917969 93.519531 260.835938 L 74.09375 273.324219 L 46.679688 245.90625 L 59.164062 226.480469 C 61.085938 223.5 61.195312 219.699219 59.449219 216.609375 C 54.898438 208.546875 51.335938 199.953125 48.855469 191.0625 C 47.902344 187.648438 45.140625 185.042969 41.675781 184.285156 L 19.125 179.382812 L 19.125 140.613281 L 41.675781 135.710938 C 45.140625 134.957031 47.902344 132.351562 48.855469 128.9375 C 51.332031 120.046875 54.898438 111.453125 59.449219 103.386719 C 61.191406 100.300781 61.085938 96.5 59.164062 93.519531 L 46.675781 74.09375 L 74.09375 46.675781 L 93.519531 59.164062 C 96.5 61.082031 100.300781 61.191406 103.386719 59.449219 C 111.453125 54.898438 120.046875 51.332031 128.9375 48.855469 C 132.351562 47.902344 134.957031 45.140625 135.710938 41.675781 L 140.617188 19.125 L 179.382812 19.125 L 184.289062 41.675781 C 185.042969 45.140625 187.648438 47.902344 191.0625 48.855469 C 199.953125 51.332031 208.546875 54.898438 216.609375 59.449219 C 219.699219 61.191406 223.5 61.082031 226.480469 59.164062 L 245.90625 46.675781 L 273.320312 74.09375 L 260.835938 93.519531 C 258.914062 96.5 258.804688 100.300781 260.550781 103.386719 C 265.101562 111.453125 268.664062 120.046875 271.144531 128.9375 C 272.097656 132.351562 274.859375 134.957031 278.324219 135.710938 L 300.875 140.613281 Z M 300.875 179.382812 "/>
</g>
</svg>
