
<svg xmlns="http://www.w3.org/2000/svg" xmlns:xlink="http://www.w3.org/1999/xlink" width="320pt" height="320pt" viewBox="0 0 320 320" version="1.1">
<g >
<path style=" stroke:none;fill-rule:nonzero;fill:rgb(0%,0%,0%);fill-opacity:1;" d="M 298.785156 309.480469 L 274.460938 77.875 C 273.953125 73.023438 269.867188 69.34375 264.988281 69.34375 L 219.277344 69.34375 L 219.277344 58.921875 C 219.277344 26.433594 192.84375 0 160.355469 0 C 127.867188 0 101.433594 26.433594 101.433594 58.921875 L 101.433594 69.34375 L 55.71875 69.34375 C 50.84375 69.34375 46.757812 73.023438 46.246094 77.875 L 21.925781 309.480469 C 21.644531 312.164062 22.515625 314.84375 24.320312 316.851562 C 26.128906 318.855469 28.703125 320 31.398438 320 L 289.308594 320 C 292.007812 320 294.582031 318.855469 296.386719 316.851562 C 298.195312 314.84375 299.066406 312.164062 298.785156 309.480469 Z M 120.480469 58.921875 C 120.480469 36.9375 138.371094 19.046875 160.355469 19.046875 C 182.339844 19.046875 200.230469 36.9375 200.230469 58.921875 L 200.230469 69.34375 L 120.480469 69.34375 Z M 41.976562 300.953125 L 64.296875 88.390625 L 101.433594 88.390625 L 101.433594 109.378906 C 101.433594 114.636719 105.699219 118.902344 110.957031 118.902344 C 116.214844 118.902344 120.480469 114.636719 120.480469 109.378906 L 120.480469 88.390625 L 200.230469 88.390625 L 200.230469 109.378906 C 200.230469 114.636719 204.496094 118.902344 209.753906 118.902344 C 215.011719 118.902344 219.277344 114.636719 219.277344 109.378906 L 219.277344 88.390625 L 256.414062 88.390625 L 278.734375 300.953125 Z M 41.976562 300.953125 "/>
</g>
</svg>
