<svg height="512pt" viewBox="0 0 512 512" width="512pt" xmlns="http://www.w3.org/2000/svg"><path d="m418.144531 121.140625-82.859375 82.859375h56.714844c11.046875 0 20 8.953125 20 20s-8.953125 20-20 20h-75c-27.570312 0-50-22.429688-50-50v-75c0-11.046875 8.953125-20 20-20s20 8.953125 20 20v56.714844l82.855469-82.855469c7.8125-7.8125 20.476562-7.8125 28.285156 0 7.8125 7.808594 7.8125 20.472656.003906 28.28125zm-192.144531 288.859375c11.046875 0 20-8.953125 20-20v-75c0-27.570312-22.429688-50-50-50h-75c-11.046875 0-20 8.953125-20 20s8.953125 20 20 20h56.714844l-82.859375 82.859375c-7.808594 7.808594-7.808594 20.472656 0 28.28125 3.90625 3.90625 9.027343 5.859375 14.144531 5.859375s10.238281-1.953125 14.144531-5.859375l82.855469-82.855469v56.714844c0 11.046875 8.953125 20 20 20zm266-58c11.046875 0 20-8.953125 20-20v-252c0-44.113281-35.886719-80-80-80h-352c-44.113281 0-80 35.886719-80 80v352c0 44.113281 35.886719 80 80 80h352c44.113281 0 80-35.886719 80-80 0-11.046875-8.953125-20-20-20s-20 8.953125-20 20c0 22.054688-17.945312 40-40 40h-352c-22.054688 0-40-17.945312-40-40v-352c0-22.054688 17.945312-40 40-40h352c22.054688 0 40 17.945312 40 40v252c0 11.046875 8.953125 20 20 20zm0 0"/></svg>