
<svg xmlns="http://www.w3.org/2000/svg" xmlns:xlink="http://www.w3.org/1999/xlink" width="320pt" height="320pt" viewBox="0 0 320 320" version="1.1">
<g >
<path style=" stroke:none;fill-rule:nonzero;fill:rgb(0%,0%,0%);fill-opacity:1;" d="M 261.339844 75.714844 L 209.554688 127.5 L 245 127.5 C 251.90625 127.5 257.5 133.09375 257.5 140 C 257.5 146.90625 251.90625 152.5 245 152.5 L 198.125 152.5 C 180.894531 152.5 166.875 138.480469 166.875 121.25 L 166.875 74.375 C 166.875 67.46875 172.46875 61.875 179.375 61.875 C 186.28125 61.875 191.875 67.46875 191.875 74.375 L 191.875 109.820312 L 243.660156 58.039062 C 248.542969 53.15625 256.457031 53.15625 261.335938 58.039062 C 266.21875 62.917969 266.21875 70.832031 261.339844 75.710938 Z M 141.25 256.25 C 148.15625 256.25 153.75 250.65625 153.75 243.75 L 153.75 196.875 C 153.75 179.644531 139.730469 165.625 122.5 165.625 L 75.625 165.625 C 68.722656 165.625 63.125 171.21875 63.125 178.125 C 63.125 185.03125 68.722656 190.625 75.625 190.625 L 111.070312 190.625 L 59.285156 242.414062 C 54.40625 247.292969 54.40625 255.207031 59.285156 260.085938 C 61.726562 262.53125 64.925781 263.75 68.125 263.75 C 71.324219 263.75 74.523438 262.53125 76.964844 260.085938 L 128.75 208.304688 L 128.75 243.75 C 128.75 250.65625 134.347656 256.25 141.25 256.25 Z M 307.5 220 C 314.40625 220 320 214.40625 320 207.5 L 320 50 C 320 22.429688 297.570312 0 270 0 L 50 0 C 22.429688 0 0 22.429688 0 50 L 0 270 C 0 297.570312 22.429688 320 50 320 L 270 320 C 297.570312 320 320 297.570312 320 270 C 320 263.09375 314.40625 257.5 307.5 257.5 C 300.59375 257.5 295 263.09375 295 270 C 295 283.785156 283.785156 295 270 295 L 50 295 C 36.214844 295 25 283.785156 25 270 L 25 50 C 25 36.214844 36.214844 25 50 25 L 270 25 C 283.785156 25 295 36.214844 295 50 L 295 207.5 C 295 214.40625 300.59375 220 307.5 220 Z M 307.5 220 "/>
</g>
</svg>
