
<svg xmlns="http://www.w3.org/2000/svg" xmlns:xlink="http://www.w3.org/1999/xlink" width="256pt" height="256pt" viewBox="0 0 256 256" version="1.1">
<g >
<path style=" stroke:none;fill-rule:nonzero;fill:rgb(0%,0%,0%);fill-opacity:1;" d="M 179.207031 10.65625 C 175.410156 8.996094 170.988281 10.730469 169.332031 14.523438 C 167.671875 18.320312 169.40625 22.742188 173.199219 24.402344 C 214.386719 42.398438 240.996094 83.0625 241 127.996094 C 241 172.9375 214.386719 213.601562 173.199219 231.597656 C 169.402344 233.257812 167.667969 237.679688 169.328125 241.472656 C 170.558594 244.292969 173.3125 245.972656 176.203125 245.972656 C 177.207031 245.972656 178.226562 245.773438 179.203125 245.34375 C 225.855469 224.960938 256 178.898438 256 127.996094 C 255.996094 77.097656 225.855469 31.039062 179.207031 10.65625 Z M 179.207031 10.65625 "/>
<path style=" stroke:none;fill-rule:nonzero;fill:rgb(0%,0%,0%);fill-opacity:1;" d="M 181.207031 68.527344 C 178.121094 65.765625 173.378906 66.027344 170.617188 69.113281 C 167.851562 72.199219 168.117188 76.941406 171.203125 79.703125 C 184.925781 91.988281 192.800781 109.59375 192.800781 128 C 192.800781 146.40625 184.925781 164.007812 171.203125 176.296875 C 168.117188 179.058594 167.851562 183.800781 170.617188 186.886719 C 172.097656 188.542969 174.148438 189.382812 176.207031 189.382812 C 177.988281 189.382812 179.773438 188.753906 181.207031 187.472656 C 198.105469 172.34375 207.800781 150.664062 207.800781 128 C 207.800781 105.332031 198.105469 83.65625 181.207031 68.527344 Z M 181.207031 68.527344 "/>
<path style=" stroke:none;fill-rule:nonzero;fill:rgb(0%,0%,0%);fill-opacity:1;" d="M 131.390625 28.925781 C 128.867188 27.648438 125.84375 27.898438 123.566406 29.566406 L 65.296875 72.296875 L 7.5 72.296875 C 3.359375 72.296875 0 75.65625 0 79.796875 L 0 176.199219 C 0 180.339844 3.359375 183.699219 7.5 183.699219 L 65.292969 183.699219 L 123.566406 226.429688 C 124.875 227.390625 126.433594 227.882812 128 227.882812 C 129.15625 227.882812 130.320312 227.613281 131.390625 227.074219 C 133.910156 225.796875 135.5 223.207031 135.5 220.382812 L 135.5 35.613281 C 135.5 32.789062 133.910156 30.203125 131.390625 28.925781 Z M 120.5 205.582031 L 72.183594 170.152344 C 70.898438 169.207031 69.34375 168.699219 67.75 168.699219 L 15 168.699219 L 15 87.296875 L 67.75 87.296875 C 69.34375 87.296875 70.898438 86.789062 72.183594 85.847656 L 120.5 50.417969 Z M 120.5 205.582031 "/>
</g>
</svg>
