
<svg xmlns="http://www.w3.org/2000/svg" xmlns:xlink="http://www.w3.org/1999/xlink" width="256pt" height="256pt" viewBox="0 0 256 256" version="1.1">
<g >
<path style=" stroke:none;fill-rule:nonzero;fill:rgb(0%,0%,0%);fill-opacity:1;" d="M 234.667969 42.667969 L 181.332031 42.667969 L 181.332031 10.667969 C 181.332031 4.777344 176.566406 0 170.667969 0 L 85.332031 0 C 79.433594 0 74.667969 4.777344 74.667969 10.667969 L 74.667969 42.667969 L 21.332031 42.667969 C 15.433594 42.667969 10.667969 47.445312 10.667969 53.332031 C 10.667969 59.222656 15.433594 64 21.332031 64 L 32 64 L 32 224 C 32 241.640625 46.359375 256 64 256 L 192 256 C 209.640625 256 224 241.640625 224 224 L 224 64 L 234.667969 64 C 240.566406 64 245.332031 59.222656 245.332031 53.332031 C 245.332031 47.445312 240.566406 42.667969 234.667969 42.667969 Z M 96 21.332031 L 160 21.332031 L 160 42.667969 L 96 42.667969 Z M 202.667969 224 C 202.667969 229.878906 197.886719 234.667969 192 234.667969 L 64 234.667969 C 58.113281 234.667969 53.332031 229.878906 53.332031 224 L 53.332031 64 L 202.667969 64 Z M 202.667969 224 "/>
<path style=" stroke:none;fill-rule:nonzero;fill:rgb(0%,0%,0%);fill-opacity:1;" d="M 96 85.332031 C 90.101562 85.332031 85.332031 90.113281 85.332031 96 L 85.332031 192 C 85.332031 197.886719 90.101562 202.667969 96 202.667969 C 101.898438 202.667969 106.667969 197.886719 106.667969 192 L 106.667969 96 C 106.667969 90.113281 101.898438 85.332031 96 85.332031 Z M 96 85.332031 "/>
<path style=" stroke:none;fill-rule:nonzero;fill:rgb(0%,0%,0%);fill-opacity:1;" d="M 160 85.332031 C 154.101562 85.332031 149.332031 90.113281 149.332031 96 L 149.332031 192 C 149.332031 197.886719 154.101562 202.667969 160 202.667969 C 165.898438 202.667969 170.667969 197.886719 170.667969 192 L 170.667969 96 C 170.667969 90.113281 165.898438 85.332031 160 85.332031 Z M 160 85.332031 "/>
</g>
</svg>
