
<svg xmlns="http://www.w3.org/2000/svg" xmlns:xlink="http://www.w3.org/1999/xlink" width="49pt" height="49pt" viewBox="0 0 49 49" version="1.1">
<g >
<path style=" stroke:none;fill-rule:nonzero;fill:rgb(0%,0%,0%);fill-opacity:1;" d="M 24.4375 0 C 10.941406 0 0 10.941406 0 24.4375 C 0 37.933594 10.941406 48.875 24.4375 48.875 C 37.933594 48.875 48.875 37.933594 48.875 24.4375 C 48.875 10.941406 37.933594 0 24.4375 0 Z M 36.832031 27.082031 C 37.972656 28.191406 39.175781 29.238281 40.199219 30.46875 C 40.652344 31.011719 41.078125 31.570312 41.40625 32.203125 C 41.867188 33.105469 41.449219 34.089844 40.644531 34.144531 L 35.636719 34.144531 C 34.34375 34.25 33.316406 33.730469 32.449219 32.84375 C 31.753906 32.140625 31.113281 31.386719 30.445312 30.660156 C 30.171875 30.359375 29.886719 30.078125 29.542969 29.859375 C 28.863281 29.414062 28.269531 29.550781 27.878906 30.261719 C 27.480469 30.988281 27.386719 31.792969 27.351562 32.601562 C 27.296875 33.78125 26.941406 34.089844 25.753906 34.144531 C 23.222656 34.261719 20.824219 33.878906 18.589844 32.601562 C 16.621094 31.476562 15.097656 29.890625 13.769531 28.089844 C 11.183594 24.585938 9.203125 20.738281 7.425781 16.777344 C 7.023438 15.886719 7.316406 15.410156 8.300781 15.390625 C 9.933594 15.359375 11.566406 15.363281 13.203125 15.390625 C 13.867188 15.398438 14.308594 15.78125 14.5625 16.40625 C 15.445312 18.582031 16.527344 20.648438 17.882812 22.566406 C 18.246094 23.074219 18.613281 23.585938 19.140625 23.945312 C 19.71875 24.34375 20.164062 24.210938 20.4375 23.5625 C 20.609375 23.152344 20.6875 22.710938 20.722656 22.269531 C 20.855469 20.761719 20.871094 19.25 20.644531 17.746094 C 20.503906 16.804688 19.976562 16.195312 19.035156 16.019531 C 18.558594 15.929688 18.628906 15.75 18.863281 15.476562 C 19.265625 15.007812 19.644531 14.714844 20.398438 14.714844 L 26.054688 14.714844 C 26.945312 14.886719 27.148438 15.289062 27.265625 16.1875 L 27.273438 22.472656 C 27.261719 22.820312 27.445312 23.847656 28.070312 24.078125 C 28.570312 24.242188 28.902344 23.839844 29.199219 23.523438 C 30.554688 22.085938 31.523438 20.386719 32.386719 18.628906 C 32.769531 17.851562 33.101562 17.050781 33.421875 16.246094 C 33.65625 15.652344 34.027344 15.359375 34.699219 15.367188 L 40.144531 15.375 C 40.304688 15.375 40.46875 15.375 40.628906 15.402344 C 41.546875 15.5625 41.796875 15.957031 41.515625 16.851562 C 41.066406 18.257812 40.199219 19.429688 39.347656 20.605469 C 38.441406 21.863281 37.46875 23.078125 36.566406 24.339844 C 35.738281 25.496094 35.804688 26.078125 36.832031 27.082031 Z M 36.832031 27.082031 "/>
</g>
</svg>
