
<svg xmlns="http://www.w3.org/2000/svg" xmlns:xlink="http://www.w3.org/1999/xlink" width="49pt" height="49pt" viewBox="0 0 49 49" version="1.1">
<g >
<path style=" stroke:none;fill-rule:nonzero;fill:rgb(0%,0%,0%);fill-opacity:1;" d="M 12.839844 26.242188 L 14.777344 26.242188 L 14.777344 36.726562 L 16.609375 36.726562 L 16.609375 26.242188 L 18.582031 26.242188 L 18.582031 24.523438 L 12.839844 24.523438 Z M 12.839844 26.242188 "/>
<path style=" stroke:none;fill-rule:nonzero;fill:rgb(0%,0%,0%);fill-opacity:1;" d="M 28.335938 27.523438 C 27.730469 27.523438 27.164062 27.855469 26.632812 28.507812 L 26.632812 24.523438 L 24.988281 24.523438 L 24.988281 36.726562 L 26.632812 36.726562 L 26.632812 35.847656 C 27.183594 36.527344 27.75 36.851562 28.335938 36.851562 C 28.992188 36.851562 29.433594 36.507812 29.652344 35.832031 C 29.765625 35.445312 29.820312 34.839844 29.820312 34 L 29.820312 30.378906 C 29.820312 29.515625 29.765625 28.914062 29.652344 28.550781 C 29.433594 27.867188 28.992188 27.523438 28.335938 27.523438 Z M 28.171875 34.128906 C 28.171875 34.949219 27.929688 35.355469 27.453125 35.355469 C 27.183594 35.355469 26.910156 35.226562 26.632812 34.949219 L 26.632812 29.40625 C 26.910156 29.132812 27.183594 29.003906 27.453125 29.003906 C 27.929688 29.003906 28.171875 29.425781 28.171875 30.246094 Z M 28.171875 34.128906 "/>
<path style=" stroke:none;fill-rule:nonzero;fill:rgb(0%,0%,0%);fill-opacity:1;" d="M 21.910156 34.582031 C 21.546875 35.101562 21.199219 35.355469 20.871094 35.355469 C 20.648438 35.355469 20.523438 35.226562 20.484375 34.96875 C 20.46875 34.914062 20.46875 34.714844 20.46875 34.328125 L 20.46875 27.632812 L 18.820312 27.632812 L 18.820312 34.824219 C 18.820312 35.464844 18.878906 35.898438 18.96875 36.175781 C 19.132812 36.636719 19.5 36.851562 20.027344 36.851562 C 20.636719 36.851562 21.257812 36.488281 21.910156 35.734375 L 21.910156 36.726562 L 23.5625 36.726562 L 23.5625 27.632812 L 21.910156 27.632812 Z M 21.910156 34.582031 "/>
<path style=" stroke:none;fill-rule:nonzero;fill:rgb(0%,0%,0%);fill-opacity:1;" d="M 23.328125 19.234375 C 23.863281 19.234375 24.121094 18.808594 24.121094 17.957031 L 24.121094 14.09375 C 24.121094 13.242188 23.863281 12.816406 23.328125 12.816406 C 22.789062 12.816406 22.53125 13.242188 22.53125 14.09375 L 22.53125 17.957031 C 22.53125 18.808594 22.789062 19.234375 23.328125 19.234375 Z M 23.328125 19.234375 "/>
<path style=" stroke:none;fill-rule:nonzero;fill:rgb(0%,0%,0%);fill-opacity:1;" d="M 24.4375 0 C 10.941406 0 0 10.941406 0 24.4375 C 0 37.933594 10.941406 48.875 24.4375 48.875 C 37.933594 48.875 48.875 37.933594 48.875 24.4375 C 48.875 10.941406 37.933594 0 24.4375 0 Z M 27.15625 11.429688 L 28.816406 11.429688 L 28.816406 18.195312 C 28.816406 18.585938 28.816406 18.789062 28.835938 18.84375 C 28.871094 19.101562 29.003906 19.234375 29.226562 19.234375 C 29.558594 19.234375 29.910156 18.976562 30.277344 18.453125 L 30.277344 11.429688 L 31.945312 11.429688 L 31.945312 20.621094 L 30.277344 20.621094 L 30.277344 19.617188 C 29.617188 20.378906 28.984375 20.746094 28.375 20.746094 C 27.839844 20.746094 27.46875 20.527344 27.304688 20.0625 C 27.210938 19.785156 27.15625 19.34375 27.15625 18.695312 Z M 20.867188 14.425781 C 20.867188 13.445312 21.035156 12.726562 21.386719 12.261719 C 21.847656 11.632812 22.496094 11.320312 23.328125 11.320312 C 24.160156 11.320312 24.808594 11.632812 25.269531 12.261719 C 25.617188 12.726562 25.785156 13.445312 25.785156 14.425781 L 25.785156 17.644531 C 25.785156 18.621094 25.617188 19.347656 25.269531 19.804688 C 24.808594 20.433594 24.160156 20.746094 23.328125 20.746094 C 22.496094 20.746094 21.847656 20.433594 21.386719 19.804688 C 21.035156 19.347656 20.867188 18.621094 20.867188 17.644531 Z M 16.414062 8.289062 L 17.722656 13.128906 L 18.984375 8.289062 L 20.851562 8.289062 L 18.628906 15.625 L 18.628906 20.621094 L 16.785156 20.621094 L 16.785156 15.625 C 16.617188 14.742188 16.246094 13.445312 15.65625 11.722656 C 15.265625 10.578125 14.859375 9.429688 14.472656 8.289062 Z M 37.59375 37.53125 C 37.257812 38.980469 36.074219 40.050781 34.644531 40.210938 C 31.265625 40.585938 27.84375 40.589844 24.4375 40.585938 C 21.03125 40.589844 17.605469 40.585938 14.226562 40.210938 C 12.800781 40.050781 11.613281 38.980469 11.28125 37.53125 C 10.804688 35.464844 10.804688 33.210938 10.804688 31.085938 C 10.804688 28.960938 10.808594 26.707031 11.285156 24.640625 C 11.617188 23.191406 12.804688 22.121094 14.230469 21.960938 C 17.613281 21.585938 21.035156 21.582031 24.441406 21.585938 C 27.847656 21.582031 31.269531 21.585938 34.652344 21.960938 C 36.078125 22.121094 37.265625 23.191406 37.597656 24.640625 C 38.074219 26.707031 38.070312 28.960938 38.070312 31.085938 C 38.070312 33.210938 38.070312 35.464844 37.59375 37.53125 Z M 37.59375 37.53125 "/>
<path style=" stroke:none;fill-rule:nonzero;fill:rgb(0%,0%,0%);fill-opacity:1;" d="M 33.585938 27.523438 C 32.742188 27.523438 32.085938 27.832031 31.613281 28.453125 C 31.261719 28.914062 31.101562 29.625 31.101562 30.597656 L 31.101562 33.78125 C 31.101562 34.75 31.28125 35.464844 31.632812 35.921875 C 32.109375 36.542969 32.765625 36.851562 33.625 36.851562 C 34.488281 36.851562 35.160156 36.527344 35.617188 35.867188 C 35.816406 35.574219 35.949219 35.242188 36.003906 34.878906 C 36.019531 34.714844 36.039062 34.347656 36.039062 33.816406 L 36.039062 33.578125 L 34.359375 33.578125 C 34.359375 34.238281 34.335938 34.605469 34.320312 34.695312 C 34.226562 35.132812 33.992188 35.355469 33.585938 35.355469 C 33.019531 35.355469 32.742188 34.933594 32.742188 34.09375 L 32.742188 32.480469 L 36.039062 32.480469 L 36.039062 30.597656 C 36.039062 29.625 35.875 28.914062 35.527344 28.453125 C 35.066406 27.832031 34.410156 27.523438 33.585938 27.523438 Z M 34.390625 31.109375 L 32.742188 31.109375 L 32.742188 30.265625 C 32.742188 29.425781 33.019531 29.007812 33.570312 29.007812 C 34.113281 29.007812 34.390625 29.425781 34.390625 30.265625 Z M 34.390625 31.109375 "/>
</g>
</svg>
