
<svg xmlns="http://www.w3.org/2000/svg" xmlns:xlink="http://www.w3.org/1999/xlink" width="49pt" height="49pt" viewBox="0 0 49 49" version="1.1">
<g >
<path style=" stroke:none;fill-rule:nonzero;fill:rgb(0%,0%,0%);fill-opacity:1;" d="M 19.984375 29.792969 C 23.652344 27.890625 27.285156 26.007812 30.953125 24.105469 C 27.277344 22.183594 23.640625 20.289062 19.984375 18.382812 C 19.984375 22.199219 19.984375 25.976562 19.984375 29.792969 Z M 19.984375 29.792969 "/>
<path style=" stroke:none;fill-rule:nonzero;fill:rgb(0%,0%,0%);fill-opacity:1;" d="M 24.4375 0 C 10.941406 0 0 10.941406 0 24.4375 C 0 37.933594 10.941406 48.875 24.4375 48.875 C 37.933594 48.875 48.875 37.933594 48.875 24.4375 C 48.875 10.941406 37.933594 0 24.4375 0 Z M 41.089844 32.59375 C 40.664062 34.429688 39.164062 35.78125 37.359375 35.984375 C 33.078125 36.464844 28.75 36.464844 24.4375 36.464844 C 20.125 36.464844 15.792969 36.464844 11.511719 35.984375 C 9.707031 35.78125 8.207031 34.429688 7.785156 32.59375 C 7.183594 29.980469 7.183594 27.128906 7.183594 24.4375 C 7.183594 21.746094 7.191406 18.894531 7.792969 16.28125 C 8.214844 14.445312 9.714844 13.089844 11.519531 12.890625 C 15.800781 12.410156 20.132812 12.410156 24.445312 12.410156 C 28.753906 12.410156 33.085938 12.410156 37.363281 12.890625 C 39.171875 13.089844 40.671875 14.445312 41.09375 16.28125 C 41.695312 18.894531 41.691406 21.746094 41.691406 24.4375 C 41.691406 27.128906 41.691406 29.980469 41.089844 32.59375 Z M 41.089844 32.59375 "/>
</g>
</svg>
