
<svg xmlns="http://www.w3.org/2000/svg" xmlns:xlink="http://www.w3.org/1999/xlink" width="239pt" height="239pt" viewBox="0 0 239 239" version="1.1">
<g >
<path style=" stroke:none;fill-rule:nonzero;fill:rgb(0%,0%,0%);fill-opacity:1;" d="M 104.140625 85 L 184.140625 85 L 184.140625 105 L 104.140625 105 Z M 104.140625 85 "/>
<path style=" stroke:none;fill-rule:nonzero;fill:rgb(0%,0%,0%);fill-opacity:1;" d="M 144.140625 0 C 91.753906 0 49.140625 42.613281 49.140625 95 C 49.140625 117.59375 57.101562 138.351562 70.324219 154.675781 L 0 225 L 14.140625 239.140625 L 84.464844 168.816406 C 100.789062 182.039062 121.546875 190 144.140625 190 C 196.527344 190 239.140625 147.386719 239.140625 95 C 239.140625 42.613281 196.527344 0 144.140625 0 Z M 144.140625 170 C 124.308594 170 106.296875 162.210938 92.875 149.59375 L 89.546875 146.265625 C 76.929688 132.839844 69.140625 114.828125 69.140625 95 C 69.140625 53.644531 102.785156 20 144.140625 20 C 185.496094 20 219.140625 53.644531 219.140625 95 C 219.140625 136.355469 185.496094 170 144.140625 170 Z M 144.140625 170 "/>
</g>
</svg>
